<?xml version="1.0" encoding="UTF-8" standalone="no"?>
<svg
   xmlns:dc="http://purl.org/dc/elements/1.1/"
   xmlns:cc="http://creativecommons.org/ns#"
   xmlns:rdf="http://www.w3.org/1999/02/22-rdf-syntax-ns#"
   xmlns:svg="http://www.w3.org/2000/svg"
   xmlns="http://www.w3.org/2000/svg"
   xmlns:sodipodi="http://sodipodi.sourceforge.net/DTD/sodipodi-0.dtd"
   xmlns:inkscape="http://www.inkscape.org/namespaces/inkscape"
   width="128"
   height="127.99999"
   viewBox="0 0 33.866669 33.866667"
   version="1.1"
   id="svg8"
   inkscape:version="1.0.2 (e86c870879, 2021-01-15, custom)"
   sodipodi:docname="icon.svg">
  <defs
     id="defs2" />
  <sodipodi:namedview
     id="base"
     pagecolor="#ffffff"
     bordercolor="#666666"
     borderopacity="1.0"
     inkscape:pageopacity="0.0"
     inkscape:pageshadow="2"
     inkscape:zoom="1.9853907"
     inkscape:cx="-17.248973"
     inkscape:cy="46.702104"
     inkscape:document-units="px"
     inkscape:current-layer="text12"
     inkscape:document-rotation="0"
     showgrid="false"
     units="px"
     inkscape:window-width="1366"
     inkscape:window-height="707"
     inkscape:window-x="0"
     inkscape:window-y="0"
     inkscape:window-maximized="1" />
  <metadata
     id="metadata5">
    <rdf:RDF>
      <cc:Work
         rdf:about="">
        <dc:format>image/svg+xml</dc:format>
        <dc:type
           rdf:resource="http://purl.org/dc/dcmitype/StillImage" />
        <dc:title></dc:title>
      </cc:Work>
    </rdf:RDF>
  </metadata>
  <g
     inkscape:label="Layer 1"
     inkscape:groupmode="layer"
     id="layer1"
     transform="translate(-5.0758443,-5.3874812)">
    <g
       aria-label="{R}"
       id="text12"
       style="font-style:normal;font-weight:normal;font-size:83.1849px;line-height:1.25;font-family:sans-serif;letter-spacing:0px;word-spacing:0px;fill:#000000;fill-opacity:1;stroke:none;stroke-width:2.07963">
      <path
         style="fill:#000000;stroke:none;stroke-width:8.46667;stroke-miterlimit:4;stroke-dasharray:none;stop-color:#000000"
         id="path1446"
         d="m 11.358181,32.731599 c 0.747041,-1.959185 1.450397,-3.932418 2.118326,-5.919989 1.01856,-3.052685 1.857668,-6.159805 2.613236,-9.286657 0.375119,-1.555648 0.717992,-3.12152 0.904866,-4.712043 0.04878,-0.408706 0.07123,-0.819483 0.07432,-1.23084 -9e-4,-0.214665 -0.01181,-0.429194 -0.01901,-0.643729 -0.0099,-0.383931 -0.005,-0.767943 0.0021,-1.1518624 0.0324,-0.089595 -0.0311,-0.225479 0.01263,-0.3128155 0.0059,-0.011869 0.04968,-0.017711 0.03832,-0.010843 -1.688267,1.0207519 -2.253745,0.7296609 -1.545346,1.0459899 0.973436,0.787083 1.957915,1.557676 2.968227,2.297252 1.793204,1.260501 3.797065,2.164989 5.739335,3.164267 0.820391,0.459583 1.664166,0.897894 2.423213,1.458268 0.29383,0.216923 0.677682,0.534177 0.880178,0.854519 0.08654,0.136899 0.125583,0.29858 0.188374,0.447871 -0.0233,0.170827 -0.0089,0.351218 -0.06989,0.512481 -0.29855,0.789489 -1.081992,1.371087 -1.757525,1.8061 -0.09488,0.0611 0.357454,-0.259247 0.248468,-0.229962 -0.506963,0.136223 -0.98157,0.37255 -1.472355,0.558825 -2.601192,0.816528 -5.307906,1.20819 -8.01885,1.417118 -1.174364,0.06405 -1.364102,-0.0917 -2.565224,1.092864 -0.105183,0.103732 0.253201,0.155934 0.391707,0.207315 0.201979,0.07493 0.41718,0.108053 0.623699,0.169367 0.266487,0.07912 0.53001,0.167895 0.795015,0.251843 2.354216,0.79264 4.331443,2.229214 6.129762,3.91482 0.4221,0.395646 0.818925,0.817423 1.228387,1.226134 1.477802,1.527623 2.758004,3.224016 3.918856,4.999791 0.216603,0.324501 0.404603,0.66348 0.534103,1.031282 0,0 1.716437,-0.961842 1.716437,-0.961842 v 0 c -0.175661,-0.364365 -0.415793,-0.689101 -0.667992,-1.004302 -1.32729,-1.684587 -2.708049,-3.327913 -4.222911,-4.849017 -1.24625,-1.230725 -2.50383,-2.467714 -3.912522,-3.516865 -1.004264,-0.747947 -2.109619,-1.346458 -3.262592,-1.828667 -0.249712,-0.0956 -0.499826,-0.19016 -0.749136,-0.286805 -0.09162,-0.03552 -0.573181,-0.296399 -0.736837,-0.212324 -2.585425,1.328216 -1.831295,0.901367 -0.634415,0.814777 2.763592,-0.325343 5.525699,-0.744942 8.2068,-1.507539 2.023567,-0.711407 1.645075,-0.493178 4.029443,-1.914309 0.69081,-0.411736 1.574741,-1.190751 1.823466,-1.997441 0.0594,-0.192647 0.02477,-0.40243 0.03715,-0.603645 -0.07779,-0.162113 -0.131074,-0.338468 -0.233378,-0.48634 -0.228285,-0.329964 -0.640956,-0.644721 -0.962797,-0.861627 -0.798528,-0.538173 -1.677791,-0.95063 -2.518412,-1.41491 -1.921433,-0.993378 -3.898983,-1.907085 -5.654315,-3.186079 -0.982121,-0.740291 -1.935227,-1.517777 -2.792357,-2.4027321 -0.04836,-0.05109 -0.08047,-0.1811205 -0.145067,-0.1532691 -1.832613,0.7901442 -1.781935,0.3963231 -1.753746,1.3581142 0.0073,0.383099 0.01209,0.766259 0.0045,1.149406 -0.0052,0.218863 -0.01559,0.438508 0.0011,0.657105 0.02188,0.388776 0.02105,0.778614 0.0022,1.167537 -0.09839,1.539773 -0.34894,3.063807 -0.672312,4.571777 -0.690494,3.123514 -1.496415,6.223263 -2.560364,9.242933 -0.740051,2.059751 -1.533842,4.101537 -2.4781037,6.077722 0,0 1.7512337,-0.809024 1.7512337,-0.809024 z" />
    </g>
  </g>
</svg>
